<svg xmlns="http://www.w3.org/2000/svg" viewBox="0 0 574.72 518.59"><defs><style>.cls-1{fill:#e5e5e5;}.cls-2{fill:#595667;}.cls-3{fill:#4f4c5b;}.cls-4{fill:#acbabe;}.cls-5{fill:#98a5a8;}</style></defs><g id="Layer_2" data-name="Layer 2"><g id="Layer_1-2" data-name="Layer 1"><path class="cls-1" d="M383.93,107.76C363.38,45.47,298.83,0,222.37,0,129.36,0,54,67.28,54,150.27A135.42,135.42,0,0,0,60.23,191,129.68,129.68,0,0,0,181.75,419.31c37.12,59.51,104.38,99.28,181.19,99.28,117,0,211.78-92.19,211.78-205.92C574.72,205.84,491,118,383.93,107.76Z"/><path class="cls-2" d="M287.19,109.09a22.81,22.81,0,0,0-20.28,11.53L115,384.91a23,23,0,0,0,20,34.46l152.2-.29Z"/><path class="cls-3" d="M459.67,384.25,306.75,120.54a22.77,22.77,0,0,0-19.56-11.45v310l152.63-.29A23,23,0,0,0,459.67,384.25Z"/><polygon class="cls-4" points="287.19 162.52 159.95 381.31 287.19 380.81 287.19 162.52"/><polygon class="cls-5" points="287.12 380.81 414.29 380.31 287.19 162.52 287.12 162.64 287.12 380.81"/><path class="cls-2" d="M287.12,221.09a15.79,15.79,0,0,0-15.56,15.79V296.1a15.79,15.79,0,0,0,15.56,15.79Z"/><path class="cls-3" d="M287.36,221.08h-.24v90.8h.24a15.8,15.8,0,0,0,15.8-15.8V236.88A15.8,15.8,0,0,0,287.36,221.08Z"/><path class="cls-2" d="M287.36,322.21a16,16,0,0,0,0,32Z"/><path class="cls-3" d="M287.36,322.21v32a16,16,0,0,0,0-32Z"/></g></g></svg>