<svg xmlns="http://www.w3.org/2000/svg" viewBox="0 0 733.46 506.32"><defs><style>.cls-1,.cls-11{fill:#4f4c5b;}.cls-2,.cls-4{fill:#595667;}.cls-10,.cls-11,.cls-12,.cls-2,.cls-3,.cls-5,.cls-8,.cls-9{stroke:#4f4c5b;}.cls-10,.cls-11,.cls-12,.cls-2,.cls-3,.cls-5,.cls-7,.cls-8,.cls-9{stroke-miterlimit:10;}.cls-10,.cls-2,.cls-3,.cls-5,.cls-7,.cls-8,.cls-9{stroke-width:3px;}.cls-12,.cls-3,.cls-6,.cls-7,.cls-8{fill:none;}.cls-12,.cls-3{stroke-linecap:round;}.cls-5{fill:#acbabe;}.cls-7{stroke:#fff;}.cls-9{fill:#eef2f6;}.cls-10{fill:#e5e5e5;}.cls-12{stroke-width:4px;}</style></defs><g id="Layer_2" data-name="Layer 2"><g id="Layer_1-2" data-name="Layer 1"><ellipse class="cls-1" cx="371.68" cy="493.85" rx="220.96" ry="12.47"/><ellipse class="cls-2" cx="233.58" cy="105.96" rx="135.38" ry="25.34" transform="translate(-16.75 50.07) rotate(-11.81)"/><ellipse class="cls-3" cx="239.3" cy="111.55" rx="70.56" ry="18.7" transform="translate(-17.77 51.36) rotate(-11.81)"/><path class="cls-4" d="M228.4,81.15c31.58-6.6,61-10.59,84.49-11.9h0c-7-20-35.15-55.72-48-64.79s-27.58,4.73-42.32,14.74c0,0-16.63-1.32-44.22,0s-30,84.13-30,84.13h0C170.08,95.38,197.82,87.55,228.4,81.15Z"/><path class="cls-5" d="M731.21,243.6,616.71,200l-16.44,14,.19-27H362.6l0,1.4H133l.19,27-16.44-14L2.25,245,108.44,413.35,102,436c148.81,23.81,253.39,13,253.39,13l12.36-8.39,10.3,7s104.58,10.77,253.39-13L625,412Z"/><path class="cls-2" d="M703.25,249.83l-103-35.9.06-8.31H573.25l-210.4,2.65v1.3L160.21,207H133.13l.06,8.32-103,35.9L126.58,405.8l-3.21,16.81s103.92,17.2,230.33,10l13.95-10.58,12.11,9.18c126.41,7.18,230.33-10,230.33-10l-3.21-16.82Z"/><path class="cls-6" d="M731.21,243.6,616.71,200l-16.44,14,.19-27H362.6l0,1.4H133l.19,27-16.44-14L2.25,245,108.44,413.35,102,436c148.81,23.81,253.39,13,253.39,13l12.36-8.39,10.3,7s104.58,10.77,253.39-13L625,412Z"/><path class="cls-7" d="M299.3,44.22c-79.25,4.24-126.66,21.44-148.59,31.72"/><path class="cls-8" d="M228.4,81.15c31.58-6.6,61-10.59,84.49-11.9h0c-7-20-35.15-55.72-48-64.79s-27.58,4.73-42.32,14.74c0,0-16.63-1.32-44.22,0s-30,84.13-30,84.13h0C170.08,95.38,197.82,87.55,228.4,81.15Z"/><path class="cls-9" d="M311,401.26a8,8,0,0,0-.62,3.1v70.5s-16.23,1-23,7.23,4.54,8.64,4.54,8.64H325a8,8,0,0,0,8-8V404.36a8,8,0,0,0-.62-3.1Z"/><path class="cls-9" d="M426.57,476.37v-70.5a8,8,0,0,0-1.47-4.61H405.37a8,8,0,0,0-1.48,4.61v78.37a8,8,0,0,0,8,8H445s11.27-2.41,4.54-8.64S426.57,476.37,426.57,476.37Z"/><path class="cls-10" d="M554.75,117.07h-232V105.36a11,11,0,0,0-11-11H202.16a11,11,0,0,0-11,11v11.71H178.35a18.14,18.14,0,0,0-18.14,18.14V383.12a18.14,18.14,0,0,0,18.14,18.14h376.4a18.14,18.14,0,0,0,18.14-18.14V135.21A18.14,18.14,0,0,0,554.75,117.07Z"/><path class="cls-10" d="M559.57,132.94h-386a13.33,13.33,0,0,0-13.32,13.33V383.12a18.14,18.14,0,0,0,18.14,18.14h376.4a18.14,18.14,0,0,0,18.14-18.14V146.27A13.32,13.32,0,0,0,559.57,132.94Z"/><path class="cls-10" d="M559.57,153.82h-386a13.32,13.32,0,0,0-13.32,13.32v216a18.14,18.14,0,0,0,18.14,18.14h376.4a18.14,18.14,0,0,0,18.14-18.14v-216A13.32,13.32,0,0,0,559.57,153.82Z"/><ellipse class="cls-11" cx="433.07" cy="257.4" rx="7.23" ry="8.72"/><path class="cls-12" d="M292.42,257s11.38,11.52,20.47,0"/><path class="cls-8" d="M319.1,309.6a6.17,6.17,0,0,0,2,3.82c5.61,5.23,24.91,21.72,40.16,16.61,18.05-6,6.05-16.07.95-16.82s-11.91,2.74-22.68-7c-5.75-5.2-10.59-6.41-13.85-6.41a6.48,6.48,0,0,0-6.35,4.89A14.3,14.3,0,0,0,319.1,309.6Z"/><path class="cls-8" d="M352,330.79a20.64,20.64,0,0,0,9.22-.76c18.05-6,6.05-16.07.95-16.82-3-.45-6.63.57-11.3-.51C351.14,318,351.5,324.8,352,330.79Z"/><path class="cls-8" d="M339.53,306.22c-5.75-5.2-10.59-6.41-13.85-6.41a6.48,6.48,0,0,0-6.35,4.89,14.3,14.3,0,0,0-.23,4.9,6.17,6.17,0,0,0,2,3.82A97.89,97.89,0,0,0,329,320a108.32,108.32,0,0,0,12.58-12.06C340.89,307.4,340.22,306.84,339.53,306.22Z"/><path class="cls-9" d="M160.21,245.48c-13.88,11.68-38.42,34-39.49,34.66,0,0,7.18,25.88,10.58,29.76,2.53,2.88,17.45-18.26,28.91-33.51Z"/><path class="cls-3" d="M116.56,267.1s10,44,26.84,59.9"/><path class="cls-9" d="M572.89,247.83c13.89,11.68,38.43,34,39.5,34.66,0,0-7.19,25.87-10.59,29.75-2.52,2.88-17.44-18.25-28.91-33.5Z"/><path class="cls-3" d="M616.54,269.45s-10,44-26.83,59.9"/><path class="cls-9" d="M640.43,354a8.35,8.35,0,0,0,6.49,1.77c1.79-.19,4.17.77,4.58,6.94.66,10.11,6.8,28.44,28.91,22.3s27.68-14,28.91-25.7-7.94-36.37-35.15-34.2S637.89,331,636.57,340C636,343.71,635.87,350,640.43,354Z"/><path class="cls-3" d="M657.36,295.64s.48,20.68,5.1,30.65"/><path class="cls-3" d="M609.74,329.35s9.79,3.46,28.32,6.37"/><path class="cls-3" d="M609.74,376.13s4-12.77,28.32-25"/><path class="cls-9" d="M94.19,355.42a8.37,8.37,0,0,1-6.5,1.77c-1.79-.19-4.17.76-4.57,6.94-.66,10.11-6.8,28.44-28.91,22.3s-27.68-14-28.91-25.7,7.93-36.37,35.14-34.2,36.28,5.86,37.61,14.93C98.58,345.13,98.74,351.43,94.19,355.42Z"/><path class="cls-3" d="M77.26,297.05s-.48,20.68-5.11,30.66"/><path class="cls-3" d="M124.88,330.77s-9.79,3.45-28.33,6.36"/><path class="cls-3" d="M124.88,377.55s-4-12.77-28.33-25.05"/><line class="cls-3" x1="654.99" y1="98.46" x2="672.14" y2="81.17"/><line class="cls-3" x1="665.62" y1="115.75" x2="690.28" y2="108.52"/><path class="cls-3" d="M637.14,88.82c.35,0,6.94-24.94,6.94-24.94"/></g></g></svg>